<?xml version="1.0" encoding="utf-8"?>
<!-- Generator: Adobe Illustrator 23.1.1, SVG Export Plug-In . SVG Version: 6.00 Build 0)  -->
<svg version="1.1" id="Layer_1" xmlns="http://www.w3.org/2000/svg" xmlns:xlink="http://www.w3.org/1999/xlink" x="0px" y="0px"
	 viewBox="0 0 2112.8 512" style="enable-background:new 0 0 2112.8 512;" xml:space="preserve">
<style type="text/css">
	.st0{fill-rule:evenodd;clip-rule:evenodd;fill:#A6E7F0;}
	.st1{fill-rule:evenodd;clip-rule:evenodd;fill:#80D261;}
	.st2{fill-rule:evenodd;clip-rule:evenodd;fill:#838383;}
	.st3{fill-rule:evenodd;clip-rule:evenodd;fill:#ACACAC;}
	.st4{fill-rule:evenodd;clip-rule:evenodd;fill:#ECECEC;}
	.st5{fill-rule:evenodd;clip-rule:evenodd;fill:#CECECE;}
	.st6{fill-rule:evenodd;clip-rule:evenodd;fill:#595959;}
	.st7{fill-rule:evenodd;clip-rule:evenodd;fill:#4FC122;}
	.st8{fill-rule:evenodd;clip-rule:evenodd;fill:#6BD9E7;}
	.st9{fill:#FFFFFF;}
</style>
<title>viajes</title>
<path class="st0" d="M521.8,306.6c-8.5,116.4-109.8,204-226.2,195.5C184.9,494,99.3,401.8,99.5,290.8l127.6-177.6l96.6-33.1
	c24.3,1.4,48.2,7.1,70.6,16.7c77.7,33.4,128.1,109.9,128.1,194.5C522.3,296.5,522.1,301.6,521.8,306.6L521.8,306.6z"/>
<path class="st1" d="M414.2,106.8c66.7,37.5,108,108,108,184.6c0,5.1-0.2,10.2-0.5,15.3c-4.8,32.2-60.5,29.1-63.5,1.1
	c-2.7-25.9-26.6-26.5-37.5-27.6c-27-2.8-39.3-22.1-4.8-67.4c28.7-37.8-76.6-76.1-21.8-115.8C401,99.8,407.7,103.1,414.2,106.8
	L414.2,106.8z"/>
<path class="st2" d="M329.9,153.5l13.2,11.8c6.7,6,7.4,16.4,1.4,23.2l-32.6,36.7L287,207l1.6-31.6l18.1-20.4
	C312.7,148.2,323.1,147.6,329.9,153.5L329.9,153.5z"/>
<path class="st3" d="M288.5,175.3l23.3,49.9l10.2,21.9c7.6,16.2,2.1,32.6-3.9,39.3l-11.8,13.2c-8.9,10-16.2,7-23.4-3.8l-68.7-101.6
	l9.7-45.8l48.7-7.1L288.5,175.3z"/>
<path class="st3" d="M163.2,240.6l25.3,50.9c6.2,12.5,1.6,25.4-3.1,30.8l-6.5,7.3c-6.9,7.8-12.7,5.5-18.3-3l-40.3-47.1l9.5-27.5
	L163.2,240.6z"/>
<path class="st3" d="M65.8,182.4l52.6,18.5l-0.2,36.1l-32.9,10.5l-51-33.3c-9-4.6-12-10-5.1-17.8l6.5-7.3
	C40.4,183.8,52.7,177.8,65.8,182.4L65.8,182.4z"/>
<path class="st1" d="M370.4,401.7c18.8-31.3,76.8-38.4,117.4,5.5c-63.6,97.6-194.4,125.2-292,61.5c-2.7-1.8-5.4-3.6-8.1-5.5
	c-1.9-58,44.9-73,82.6-41.8C286.7,434.7,346.7,441.2,370.4,401.7L370.4,401.7z"/>
<path class="st2" d="M161.2,9.1c4,0,7.9,1.4,10.9,4.1L185.3,25c6.8,6,7.4,16.4,1.4,23.2l-18.1,20.4h-38.7l-13.6-17.3l32.6-36.7
	C152,11.1,156.5,9.1,161.2,9.1L161.2,9.1z"/>
<path class="st3" d="M116.3,51.3l52.2,17.3l35.6,11.8l-6.3,46l-39.3,18.2L49.6,88.3C38,82.4,34.2,75.5,43.1,65.5l11.8-13.2
	c6-6.8,21.6-14.2,38.6-8.5L116.3,51.3z"/>
<path class="st4" d="M266.7,19.5c17.5-5.2,40.7-8.7,51.7,1.2S328.8,54,325.7,72c-0.5,2.8-1.1,5.5-2,8.2
	c-4.1,12.7-12.8,26.4-27.5,39.8l-23.5,21.3l-58.4,52.9l-94,85.1l-4,3.8c-5.7,4.8-11.5,7.1-16.8,7.7c-17.8,1.8-30.2-17.5-17.7-38.3
	l3.5-5l73.2-102.9l45.6-64.2l18.4-25.8C236.7,34.7,252.2,23.8,266.7,19.5L266.7,19.5z"/>
<path class="st5" d="M253.1,122l-58.4,52.9l-94,85.1l-4,3.8c-5.8,4.7-11.5,7.1-16.8,7.7c-1.1,0.1-2.1,0.2-3.2,0.1
	c1.1,12,10.7,20.5,22.7,19.2c5.3-0.5,11-2.9,16.8-7.7l4-3.8l94-85.1l58.4-52.9l23.5-21.3c14.7-13.5,23.4-27.1,27.5-39.8
	c0.9-2.7,1.5-5.4,2-8.2c3.1-18,3.9-41.4-7.3-51.2c-3.4-2.9-7.6-4.8-12-5.5c2.8,11.1,1.8,25.4-0.3,37.3c-0.5,2.8-1.1,5.5-2,8.2
	c-4.1,12.8-12.8,26.4-27.5,39.8L253.1,122z"/>
<path class="st2" d="M297.3,282.9l-68.7-101.6l-14.3,12.9L283,295.9c7.1,10.8,14.5,13.8,23.4,3.8l6.4-7.2
	C307.2,294.1,302.2,290.4,297.3,282.9L297.3,282.9z"/>
<path class="st6" d="M332.8,178.1l-28.1,31.7l7.2,15.5l32.6-36.7c6-6.8,5.4-17.2-1.4-23.2l-11.6-10.4l0,0
	C338.1,161,338.7,171.3,332.8,178.1L332.8,178.1z"/>
<path class="st6" d="M152,63l16.5,5.6l18.1-20.4c6-6.8,5.4-17.1-1.4-23.2l-9.1-8.1c6.7,6,4.1,15.3-2,22L152,63z"/>
<path class="st2" d="M169,129.9L60.1,73.5C52,69.5,47.6,64.8,48.8,59l-5.8,6.5c-8.9,10-5.1,17,6.5,22.8l108.9,56.3L169,129.9z"/>
<path class="st2" d="M172.9,315.4l-40.3-47.1l-12.2,11.1l40.3,47.1c5.6,8.5,11.3,10.8,18.3,3l5.8-6.5
	C180.5,324.1,176.7,321.1,172.9,315.4L172.9,315.4z"/>
<path class="st2" d="M95,234l-51-33.4c-6.1-3.1-9.5-6.5-8.8-10.9l-5.9,6.6c-7,7.8-4,13.3,5.1,17.8l51,33.3L95,234z"/>
<path class="st7" d="M522.3,291.4c0-76.5-41.3-147.1-108-184.6c-3.5-1.9-7-3.8-10.6-5.6c34.6,45.8,56,109.3,56,179.5
	c0,9.6-0.4,19-1.2,28.3c4.4,26.9,58.6,29.4,63.3-2.3C522.2,301.6,522.3,296.5,522.3,291.4L522.3,291.4z"/>
<path class="st8" d="M521.8,306.6c-4.7,31.8-58.9,29.2-63.3,2.3c-2,24-6.6,47.7-13.9,70.6c15,4.4,30,13.3,43.3,27.6
	C507.6,377.1,519.3,342.5,521.8,306.6z"/>
<path class="st7" d="M444.6,379.6c-15,47.3-40.6,87.1-72.6,114.4c47.6-14.4,88.7-45.2,115.9-86.9C474.7,392.9,459.6,384,444.6,379.6
	L444.6,379.6z"/>
<path d="M529.8,291.4C529.8,212.1,487,139.1,418,100.2c-26.1-14.7-55-23.9-84.9-26.8v-0.1c3.4-19.6,4.5-45.7-9.7-58.1
	c-14.8-13.3-43.3-7.5-58.9-2.9c-17.5,5.2-34.2,18.3-48.2,37.9l-15.1,21.3L181.8,65l10.5-11.8c8.8-9.9,7.9-25.1-2-33.9L177.1,7.5
	c-9.9-8.8-25-7.9-33.8,2l-29.3,33l-18.2-6c-21.1-7-39.4,2.6-46.6,10.7L37.4,60.5c-5.5,6.2-7.7,12.3-6.5,18.2
	c1.2,6.5,6.2,11.8,15.2,16.3l101.2,52.3l-31.7,44.6l-47.3-16.6c-17-6-32.2,2-38.3,8.8l-6.4,7.3c-4.6,5.2-6.5,10.4-5.5,15.6
	c1.5,8,9.3,12.2,12.4,13.8l44.2,28.9c-10.2,17.9-5.2,34,4.4,42.3c3.7,3.2,8.2,5.3,13,6.1c0.8,25.9,6.2,51.5,16,75.6
	c1.7,3.8,6.1,5.6,9.9,3.9c3.7-1.6,5.5-5.8,4.1-9.6c-9.2-22.6-14.3-46.6-14.9-71c4.5-1.5,8.7-3.8,12.4-6.8l35,40.9
	c1.9,2.9,7,10.1,15.1,10.7c0.4,0,0.7,0,1.1,0c4.9,0,9.5-2.5,13.8-7.3l6.5-7.3c6.1-6.9,12.2-23,4.2-39.1l-22.7-45.7l40.4-36.6
	l24.6,36.5c2.4,3.4,7.1,4.3,10.5,1.9c3.4-2.3,4.3-6.9,2-10.4l-25.9-38.3l45.9-41.6l11.5,24.6c0,0.1,0.1,0.2,0.1,0.3l33.4,71.6
	c6.5,13.9,1,27-2.7,31.1l-11.8,13.2c-2.6,2.9-4.3,3.6-4.9,3.6c-0.9-0.1-3.2-1.5-6.6-6.6l-20.8-30.8c-2.3-3.5-6.9-4.5-10.4-2.3
	s-4.5,6.9-2.3,10.4c0.1,0.1,0.1,0.2,0.2,0.3l20.8,30.7c5.6,8.5,11.5,12.8,18.1,13.3c0.4,0,0.8,0,1.2,0c5.6,0,11-2.9,16.1-8.7
	l11.8-13.2c7.2-8.1,14.5-27.5,5.1-47.6l-8.1-17.4l29.3-33c8.8-9.9,7.9-25-2-33.9l-13.2-11.8c-9.9-8.8-25-7.9-33.8,2l-10.5,11.8
	l-8.7-18.5l19.4-17.6l0,0c12.9-11.7,22.2-24.5,27.5-37.5c17.5,1.5,34.7,5.3,51.2,11.2c-5.3,5.9-8.4,12.2-9.2,19
	c-2.1,17.3,10.8,32.7,23.3,47.5c17.2,20.4,24.3,31.2,15.9,42.3c-19.8,26.1-26.7,46.7-20.4,61.3c3.1,7.2,10.9,16.2,30.4,18.2l2,0.2
	c14.1,1.3,27,3.8,28.7,20.7c1.7,16.5,17.4,28.4,38.1,28.9h1.1c7.1,0,14-1.5,20.4-4.5c-4.6,21.9-12.7,42.9-24.1,62.2
	c-21.1-19.2-47.3-28.6-73.2-26c-21.7,2.2-39.6,12.7-49.3,28.7c-10.1,16.9-27.2,23-39.8,25.1c-21.6,3.7-42.3-1.9-49-7.4
	c-21.1-17.5-46.3-22.4-65.8-12.8c-15.9,7.8-26,24.1-28.6,45.6c-16-13.4-29.9-29.1-41.2-46.6c-2.6-3.3-7.4-3.8-10.6-1.2
	c-2.8,2.2-3.6,6.1-2,9.3c40.6,63,109.4,100.6,184,100.6c114.6-0.1,209.7-88.5,218.2-202.8l0,0c0.1-0.4,0.1-0.8,0.1-1.2
	C529.7,301.5,529.8,296.4,529.8,291.4L529.8,291.4z M312.4,159.9c3.2-3.6,8.8-4,12.5-0.7l13.2,11.8c3.7,3.3,4,8.9,0.8,12.6l-25,28.1
	l-16.3-35L312.4,159.9z M154.6,19.6c1.6-1.8,3.8-2.8,6.1-3c2.3-0.2,4.6,0.6,6.4,2.2l13.3,11.8c3.6,3.3,3.9,8.9,0.7,12.5l-14.8,16.7
	l-36.6-12.1L154.6,19.6z M53,81.5c-6.6-3.3-7.2-5.5-7.2-5.7c-0.1-0.6,0.4-2.4,3-5.3l11.7-13.2c3.7-4.2,16-11.2,30.5-6.4l74.8,24.8
	l0.4,0.1l25.8,8.5l-35.9,50.6L53,81.5z M37.7,207.4c-3.3-1.7-4.4-2.9-4.7-3.3c0.5-1,1.1-2,1.9-2.8l6.4-7.3c2.6-2.9,11.8-8.1,22-4.6
	l43.2,15.2l-23.1,32.5l-44.9-29.4C38.2,207.7,38,207.5,37.7,207.4z M181.7,294.8c4.8,9.7,0.7,19.4-2,22.4l-6.5,7.3
	c-0.7,0.9-1.6,1.6-2.5,2.2c-0.4-0.2-1.8-1.2-3.8-4.3c-0.2-0.3-0.4-0.5-0.6-0.8l-35.5-41.5l30-27.2L181.7,294.8z M291.1,114.4
	l-23.3,21.1c-0.1,0.1-0.3,0.2-0.4,0.3L111.3,277.4c-4.2,3.5-8.5,5.4-12.4,5.9h-0.3c-3.5,0.4-7-0.6-9.7-2.9
	c-4.9-4.2-7.1-13.2-0.8-23.8l76.4-107.5c0.1-0.1,0.1-0.1,0.2-0.2l63.9-90c12-16.8,25.9-27.9,40.2-32.2c20.8-6.2,37.9-6.3,44.5-0.3
	s8.5,22.8,4.8,44.2C315.8,85.4,306.4,100.5,291.1,114.4L291.1,114.4z M489.3,322.2c-10.9-0.2-22.4-5.6-23.5-15.3
	c-3.2-30.6-30.7-33.1-42.4-34.2l-1.9-0.2c-6.7-0.7-15.3-2.8-18-9.2c-3.8-8.8,2.9-25.6,18.5-46.1c16.7-21.9-1.6-43.7-16.4-61.2
	c-10.4-12.4-21.2-25.1-19.8-35.9c0.6-4.9,3.7-9.7,9.5-14.6c5.2,2.4,10.2,4.9,15.2,7.7c64.3,36.2,104.1,104.2,104.2,178
	c0,5-0.2,9.9-0.5,14.7C512,318.3,499.5,322.5,489.3,322.2L489.3,322.2z M310.9,495.4c-41.3,0-81.7-12.5-115.6-36.1
	c0.1-21,7.6-36.5,20.8-43c14.1-6.9,33-2.7,49.5,10.9c12.1,10,38.4,14.6,61.1,10.7c15.7-2.7,37.1-10.5,50.2-32.2
	c7-11.7,21.2-19.7,37.9-21.5c22.3-2.3,45.1,6.4,63.3,23.8C440,462.7,377.6,495.4,310.9,495.4L310.9,495.4z"/>
<path d="M266.1,43.5c-4.1,0.5-7.1,4.2-6.6,8.4c0.5,4,3.9,6.9,7.9,6.7c7.6-0.6,17.6,8.6,18.6,17c0.4,3.8,3.6,6.7,7.5,6.7
	c0.3,0,0.6,0,0.8,0c4.2-0.4,7.2-4.2,6.7-8.3c0,0,0,0,0,0C299.2,57.3,281.9,42.2,266.1,43.5L266.1,43.5z"/>
<path class="st9" d="M612,170.1h36.8l27.6,98.6c6.4,22.3,10.7,41.5,17.3,63.8h1.2c6.6-22.3,11.1-41.6,17.3-63.8l27.2-98.6H775
	l-60.8,196.2H673L612,170.1z"/>
<path class="st9" d="M791.9,173.6c0-11.6,9.1-19.6,21.4-19.6s21.4,7.9,21.4,19.6c0,11.4-9.1,19.6-21.4,19.6S791.9,185,791.9,173.6z
	 M795.9,218.9h34.6v147.4h-34.6L795.9,218.9z"/>
<path class="st9" d="M866.5,326.7c0-31.6,26.2-48,86.6-54.5c-0.5-15.8-6.8-29-26.8-29c-14.6,0-28.4,6.6-41.4,14.5l-12.7-23
	c16.2-10.2,37.1-19.3,60.5-19.3c36.8,0,55,22.7,55,63.7v87.2h-28.4l-2.6-16.3h-1c-13.2,11.3-28.3,19.9-45.7,19.9
	C884.3,369.9,866.5,352.4,866.5,326.7z M953.2,326.8v-33.1c-40,5-53.3,15.5-53.3,30.4c0,13,8.9,18.7,21.2,18.7
	C933.1,342.8,942.2,336.9,953.2,326.8L953.2,326.8z"/>
<path class="st9" d="M993.6,424.3l6.4-25.8c4.1,1.4,8.4,2.2,12.7,2.3c13.2,0,16.9-9.1,16.9-26.3V218.9h34.6v154.9
	c0,31.2-11.8,54.4-46.7,54.4C1006.8,428.2,999.2,426.4,993.6,424.3z M1025.6,173.6c0-11.6,9.1-19.6,21.4-19.6s21.4,7.9,21.4,19.6
	c0,11.4-9.1,19.6-21.4,19.6S1025.6,185,1025.6,173.6L1025.6,173.6z"/>
<path class="st9" d="M1098.4,292.7c0-47.9,33.2-77.4,67.9-77.4c39.8,0,60.8,28.8,60.8,70c0,5.6-0.5,11.3-1.5,16.8h-93.5
	c2.9,26.2,19.7,41,43.4,41c12.6,0,23.4-4,34.2-10.7l11.8,21.5c-14,9.5-31.8,16-50.5,16C1130.3,369.9,1098.4,341.3,1098.4,292.7z
	 M1197.3,278.6c0-22.7-10.1-36.5-30.2-36.5c-17.2,0-32.3,12.8-35.3,36.5H1197.3z"/>
<path class="st9" d="M1245.6,349.4l16.1-22c13.1,10.2,25.7,16.4,40.7,16.4c16.1,0,23.6-7.6,23.6-17.6c0-12.4-16-17.9-31.7-23.9
	c-19.3-7.3-41.4-18.4-41.4-43c0-25.6,20.6-44,53.6-44c20.5,0,37,8.3,49,17.6l-15.8,21.2c-10.3-7.6-20.7-12.8-32.3-12.8
	c-14.8,0-21.8,7.1-21.8,16.3c0,11.6,14.9,16.1,30.8,22c19.9,7.4,42.2,17,42.2,44.5c0,25.3-20,45.7-57.2,45.7
	C1281.2,369.9,1260,361.3,1245.6,349.4z"/>
<path class="st9" d="M1442.2,268.9c0-64.2,40.2-102.4,89.9-102.4c24.6,0,44.2,11.8,56.5,24.8l-18.6,22.4c-10.1-10.1-21.8-17-37.2-17
	c-31.9,0-54.8,27-54.8,71c0,44.8,21.1,71.9,54,71.9c17.4,0,30.8-8,41.9-20.2l18.6,21.8c-15.9,18.5-36.4,28.6-61.8,28.6
	C1481.3,369.9,1442.2,333.8,1442.2,268.9z"/>
<path class="st9" d="M1622.3,154.4h34.6v54.8l-1.4,28.4c12.4-11.6,27-22.3,47.2-22.3c31.6,0,45.4,21.4,45.4,58.6v92.4h-34.6v-88
	c0-24.2-7-33.4-22.9-33.4c-13,0-21.5,6.4-33.6,18.4v103h-34.6V154.4z"/>
<path class="st9" d="M1785.8,173.6c0-11.6,9.1-19.6,21.4-19.6s21.4,7.9,21.4,19.6c0,11.4-9.1,19.6-21.4,19.6
	S1785.8,185,1785.8,173.6z M1789.8,218.9h34.6v147.4h-34.6V218.9z"/>
<path class="st9" d="M1868.3,328.4v-174h34.6v175.8c0,8.5,3.8,11.5,7.4,11.5c1.8,0,3.6-0.2,5.4-0.6l4.3,25.8c-4.2,1.7-10,3-18.2,3
	C1877.3,369.9,1868.3,354.1,1868.3,328.4z"/>
<path class="st9" d="M1939.9,292.7c0-47.9,33.2-77.4,67.9-77.4c39.8,0,60.8,28.8,60.8,70c0,5.6-0.5,11.3-1.5,16.8h-93.5
	c2.9,26.2,19.7,41,43.4,41c12.6,0,23.4-4,34.2-10.7l11.7,21.5c-14,9.5-31.8,16-50.5,16C1971.8,369.9,1939.9,341.3,1939.9,292.7z
	 M2038.8,278.6c0-22.7-10.1-36.5-30.2-36.5c-17.2,0-32.3,12.8-35.3,36.5H2038.8z"/>
</svg>
